# xmcd CD database file
#
# Track frame offsets:
#	150
#	12615
#	27865
#	43754
#	57573
#	77629
#	95179
#	111236
#	127107
#	144994
#	165060
#	181639
#	196159
#
# Disc length: 2795 seconds
#
# Revision: 0
# Processed by: cddbd v1.5PL3 Copyright (c) Steve Scherf et al.
# Submitted via: CDex 1.40Release
#
DISCID=aa0ae90d
DTITLE=Leslie Mills - Different for Girls
DYEAR=2003
DGENRE=Pop
TTITLE0=Different for Girls
TTITLE1=Walk Along
TTITLE2=Violet
TTITLE3=Swim
TTITLE4=Be My Water
TTITLE5=Radiowave
TTITLE6=Making My Way
TTITLE7=Good Life
TTITLE8=Rule the World
TTITLE9=I Can't Wait
TTITLE10=Ready to Rain
TTITLE11=Far from All the Tears
TTITLE12=Wings
EXTD=YEAR: 2003 ID3G: 13
EXTT0=
EXTT1=
EXTT2=
EXTT3=
EXTT4=
EXTT5=
EXTT6=
EXTT7=
EXTT8=
EXTT9=
EXTT10=
EXTT11=
EXTT12=
PLAYORDER=
